<svg id="Layer_1" data-name="Layer 1" xmlns="http://www.w3.org/2000/svg" viewBox="0 0 127.35 39.12"><defs><style>.cls-1{fill:#fff;}.cls-2{fill:#ffc005;}</style></defs><title>mp stuff</title><rect x="-0.06" y="0.04" width="127.54" height="39.2"/><path class="cls-1" d="M51.34,11.62H47.92v9.77a6,6,0,1,0,12,0,5.88,5.88,0,0,0-5.61-6.11,4.71,4.71,0,0,0-3,1V11.62ZM54,18.47a2.76,2.76,0,0,1,2.6,3,2.62,2.62,0,1,1-5.21,0A2.8,2.8,0,0,1,54,18.47Z"/><polygon class="cls-1" points="60.86 15.79 60.86 26.97 60.86 27.24 61.12 27.24 63.99 27.24 64.25 27.24 64.25 26.97 64.25 15.79 64.25 15.52 63.99 15.52 61.12 15.52 60.86 15.52 60.86 15.79"/><path class="cls-1" d="M47,21.39A6.24,6.24,0,0,0,45.29,17a5.78,5.78,0,0,0-4.18-1.77,6,6,0,0,0-5.89,6.15A6.13,6.13,0,0,0,37,25.75a5.76,5.76,0,0,0,4.16,1.75A6,6,0,0,0,47,21.39Zm-8.41,0c0-1.72,1.07-3,2.49-3s2.49,1.3,2.49,3a2.52,2.52,0,1,1-5,0Z"/><polygon class="cls-1" points="63.99 14.84 64.25 14.84 64.25 14.57 64.25 11.9 64.25 11.64 63.99 11.64 61.12 11.64 60.86 11.64 60.86 11.9 60.86 14.57 60.86 14.84 61.12 14.84 63.99 14.84"/><path class="cls-1" d="M30.79,27.31h3.4V20.57a5.3,5.3,0,0,0-1.39-3.78A5.16,5.16,0,0,0,29,15.31a4.9,4.9,0,0,0-3.56,1.45,4.81,4.81,0,0,0-3.57-1.45A5.35,5.35,0,0,0,18,16.7a5.21,5.21,0,0,0-1.47,3.71v6.9h3.39v-6.8a1.79,1.79,0,0,1,1.91-1.87,1.68,1.68,0,0,1,1.82,1.87v6.8h3.4v-6.8A1.81,1.81,0,0,1,29,18.64a1.68,1.68,0,0,1,1.83,1.87v6.8Z"/><path class="cls-1" d="M81.52,22.77l0-.24A6.92,6.92,0,0,0,80,17.08a5.79,5.79,0,0,0-4.33-1.84,5.87,5.87,0,0,0-4.24,1.81,6.18,6.18,0,0,0-1.76,4.34,6.06,6.06,0,0,0,6,6.11,6.15,6.15,0,0,0,3.66-1.11,5.07,5.07,0,0,0,.61-.52l-2.31-2.35a2.38,2.38,0,0,1-2,.93,2.55,2.55,0,0,1-2.44-1.68h8.32Zm-8.25-2.88a2.55,2.55,0,0,1,2.37-1.59,2.52,2.52,0,0,1,2.43,1.59Z"/><polygon class="cls-1" points="68.77 27.24 68.77 26.97 68.77 11.88 68.77 11.62 68.5 11.62 65.64 11.62 65.37 11.62 65.37 11.88 65.37 26.97 65.37 27.24 65.64 27.24 68.5 27.24 68.77 27.24"/><path class="cls-1" d="M87.51,24.36a2.28,2.28,0,0,1-2.14-1.13l-.07-.17H81.9l0,.31c.36,2.51,2.55,4.13,5.56,4.13a6,6,0,0,0,3.69-1.11,3.64,3.64,0,0,0,1.48-2.93c0-2.72-2.36-3.33-5-3.76-1.26-.2-2-.38-2-.74s.44-.62,1.6-.62c.84,0,1.46.29,1.62.75l.06.18h3.48l0-.31a4.14,4.14,0,0,0-1.71-2.71,6.38,6.38,0,0,0-7.17.19,3.46,3.46,0,0,0-1.27,2.65A2.92,2.92,0,0,0,84,21.82a10.12,10.12,0,0,0,3.16.88c2,.31,2.12.56,2.12.93S88.56,24.36,87.51,24.36Z"/><path class="cls-2" d="M106.75,15.56h-3.6a.36.36,0,0,0-.36.36v3.35H99.44a.36.36,0,0,0-.36.36v3.61a.36.36,0,0,0,.36.36h3.35V27a.36.36,0,0,0,.36.36h3.6a.36.36,0,0,0,.36-.36V23.6h3.35a.36.36,0,0,0,.36-.36V19.63a.36.36,0,0,0-.36-.36h-3.35V15.92A.36.36,0,0,0,106.75,15.56Z"/></svg>